<svg xmlns="http://www.w3.org/2000/svg" width="1280" height="528" fill="none" viewBox="0 0 1280 528">
  <path stroke="#F8F6F5" stroke-width="2" d="M913.81 614.106a67.172 67.172 0 0 0-8.707-17.649c-14.781-27.659-33.768-52.655-56.103-74.216l-.693-.67-.694.668a298.11 298.11 0 0 0-58.584 78.832.722.722 0 0 0-.023.036l-.012.011-.065.113c-1.562 2.69-2.956 5.476-4.092 8.401a68.15 68.15 0 0 0-4.996 25.684c0 37.903 30.731 68.679 68.636 68.679 37.948 0 68.679-30.775 68.679-68.679a68.579 68.579 0 0 0-3.346-21.21Zm0 0-.952.307.951-.309.001.002Zm-66.094-193.413.547.359.548-.359c59.425-38.876 130.47-61.476 206.819-61.476 105.21 0 200.4 42.942 268.96 112.251l-55.81 55.811c-54.27-55.061-129.71-89.147-213.15-89.147-51.28 0-99.541 12.894-141.747 35.63l-1.16.625.914.949c19.951 20.721 37.552 43.704 52.29 68.524l.005.008.004.007a237.194 237.194 0 0 1 4.179 7.079c6.964 12.26 13.285 24.947 18.838 37.973.558 1.33 1.109 2.645 1.617 3.958l.03.078.027.092c3.658 12.848 5.616 26.42 5.616 40.462 0 47.694-22.634 90.155-57.779 117.131l-.001.001c-24.933 19.189-55.947 30.59-89.986 30.59-34.038 0-65.436-11.529-90.41-30.93l-.002-.001c-34.89-27.019-57.31-69.31-57.31-116.791 0-15.515 2.377-30.433 6.835-44.5a372.99 372.99 0 0 1 21.042-41.865l.001-.001c15.208-26.102 33.493-50.197 54.299-71.815l.914-.949-1.16-.625c-42.206-22.736-90.429-35.63-141.744-35.63-51.314 0-99.58 12.894-141.786 35.63l-1.16.625.914.949c18.584 19.311 35.16 40.586 49.3 63.527l.002.002a371.968 371.968 0 0 1 28.657 56.436c.016.079.042.169.087.264a148.895 148.895 0 0 1 4.603 36.795c0 47.738-22.634 90.198-57.779 117.174l-.001.001c-24.951 19.203-56.096 31.704-90.157 31.704-34.059 0-65.288-12.628-90.282-32.044h-.001c-34.848-27.019-57.268-69.31-57.268-116.835 0-14.192 1.994-27.915 5.727-40.917a381.407 381.407 0 0 1 25.227-49.59 382.164 382.164 0 0 1 51.18-66.517l.913-.949-1.159-.625c-42.206-22.736-90.472-35.63-141.744-35.63-84.386 0-160.593 34.897-215 91.026l-55.81-55.81c68.694-70.42 164.659-114.131 270.81-114.131 76.346 0 147.391 22.6 206.816 61.476l.548.359.547-.359c59.426-38.876 130.513-61.476 206.816-61.476s147.348 22.6 206.774 61.476ZM434.273 522.24l-.694-.669-.694.669c-23.076 22.261-42.6 48.205-57.546 76.934a1.091 1.091 0 0 0-.228.386 67.123 67.123 0 0 0-4.786 9.728c-3.173 7.826-4.911 16.39-4.911 25.343 0 37.69 30.518 68.207 68.208 68.207s68.208-30.517 68.208-68.207c0-8.52-1.565-16.651-4.435-24.173-1.603-4.243-3.595-8.277-6.023-12.055-14.869-28.394-34.245-54.125-57.099-76.163ZM69.155 157.793C69.155 71.605 139 1.761 225.188 1.761c86.188 0 156.075 69.844 156.075 156.032 0 86.188-69.887 156.075-156.075 156.075-86.188 0-156.033-69.886-156.033-156.075Zm78.872 0c0 42.616 34.545 77.16 77.161 77.16s77.16-34.544 77.16-77.16-34.544-77.16-77.16-77.16-77.161 34.544-77.161 77.16Zm335.897 0c0-86.188 69.845-156.032 156.033-156.032 86.188 0 156.075 69.844 156.075 156.032 0 86.188-69.887 156.075-156.075 156.075-86.188 0-156.033-69.886-156.033-156.075Zm78.872 0c0 42.616 34.545 77.16 77.161 77.16s77.16-34.544 77.16-77.16-34.544-77.16-77.16-77.16-77.161 34.544-77.161 77.16Zm335.941 0c0-86.188 69.844-156.032 156.033-156.032 86.19 0 156.07 69.844 156.07 156.032 0 86.188-69.88 156.075-156.07 156.075-86.189 0-156.033-69.886-156.033-156.075Zm78.872 0c0 42.616 34.541 77.16 77.161 77.16 42.62 0 77.16-34.544 77.16-77.16s-34.54-77.16-77.16-77.16-77.161 34.544-77.161 77.16Z"/>
</svg>
